<mxfile host="app.diagrams.net" modified="2022-04-07T06:45:20.267Z" agent="5.0 (Windows NT 10.0; Win64; x64) AppleWebKit/537.36 (KHTML, like Gecko) Chrome/100.0.4896.75 Safari/537.36" etag="yqLxD4Ahx-MtHyBdxgJl" version="17.4.0" type="github">
  <diagram id="gKdOX9BXHwb5JUz8xRu_" name="Page-1">
    <mxGraphModel dx="1865" dy="617" grid="1" gridSize="10" guides="1" tooltips="1" connect="1" arrows="1" fold="1" page="1" pageScale="1" pageWidth="827" pageHeight="1169" math="0" shadow="0">
      <root>
        <mxCell id="0" />
        <mxCell id="1" parent="0" />
        <mxCell id="AUBJ6H6WE6R_VnKt_WEj-1" value="&lt;div style=&quot;box-sizing: border-box ; width: 100% ; background: #e4e4e4 ; padding: 2px&quot;&gt;t_tech_template_identifyer&lt;/div&gt;&lt;table style=&quot;width: 100% ; font-size: 1em&quot; cellpadding=&quot;2&quot; cellspacing=&quot;0&quot;&gt;&lt;tbody&gt;&lt;tr&gt;&lt;td&gt;name&lt;br&gt;type&lt;/td&gt;&lt;td&gt;&lt;br&gt;&lt;/td&gt;&lt;/tr&gt;&lt;tr&gt;&lt;td&gt;&lt;br&gt;&lt;/td&gt;&lt;td&gt;&lt;br&gt;&lt;/td&gt;&lt;/tr&gt;&lt;/tbody&gt;&lt;/table&gt;" style="verticalAlign=top;align=left;overflow=fill;html=1;" parent="1" vertex="1">
          <mxGeometry x="-320" y="60" width="180" height="90" as="geometry" />
        </mxCell>
        <mxCell id="AUBJ6H6WE6R_VnKt_WEj-2" value="&lt;div style=&quot;box-sizing: border-box ; width: 100% ; background: #e4e4e4 ; padding: 2px&quot;&gt;t_tech_template_cartype&lt;/div&gt;&lt;table style=&quot;width: 100% ; font-size: 1em&quot; cellpadding=&quot;2&quot; cellspacing=&quot;0&quot;&gt;&lt;tbody&gt;&lt;tr&gt;&lt;td&gt;name&lt;/td&gt;&lt;td&gt;&lt;br&gt;&lt;/td&gt;&lt;/tr&gt;&lt;/tbody&gt;&lt;/table&gt;" style="verticalAlign=top;align=left;overflow=fill;html=1;" parent="1" vertex="1">
          <mxGeometry x="-60" y="60" width="180" height="90" as="geometry" />
        </mxCell>
        <mxCell id="AUBJ6H6WE6R_VnKt_WEj-3" value="&lt;div style=&quot;box-sizing: border-box ; width: 100% ; background: #e4e4e4 ; padding: 2px&quot;&gt;t_tech_template_technical&lt;/div&gt;&lt;table style=&quot;width: 100% ; font-size: 1em&quot; cellpadding=&quot;2&quot; cellspacing=&quot;0&quot;&gt;&lt;tbody&gt;&lt;tr&gt;&lt;td&gt;name&lt;br&gt;unit&lt;/td&gt;&lt;td&gt;&lt;br&gt;&lt;/td&gt;&lt;/tr&gt;&lt;/tbody&gt;&lt;/table&gt;" style="verticalAlign=top;align=left;overflow=fill;html=1;" parent="1" vertex="1">
          <mxGeometry x="190" y="60" width="180" height="90" as="geometry" />
        </mxCell>
        <mxCell id="AUBJ6H6WE6R_VnKt_WEj-6" style="edgeStyle=orthogonalEdgeStyle;rounded=0;orthogonalLoop=1;jettySize=auto;html=1;entryX=0.464;entryY=1.02;entryDx=0;entryDy=0;entryPerimeter=0;" parent="1" source="AUBJ6H6WE6R_VnKt_WEj-5" target="AUBJ6H6WE6R_VnKt_WEj-2" edge="1">
          <mxGeometry relative="1" as="geometry" />
        </mxCell>
        <mxCell id="AUBJ6H6WE6R_VnKt_WEj-7" style="edgeStyle=orthogonalEdgeStyle;rounded=0;orthogonalLoop=1;jettySize=auto;html=1;entryX=0.5;entryY=1;entryDx=0;entryDy=0;" parent="1" source="AUBJ6H6WE6R_VnKt_WEj-5" target="AUBJ6H6WE6R_VnKt_WEj-3" edge="1">
          <mxGeometry relative="1" as="geometry" />
        </mxCell>
        <mxCell id="AUBJ6H6WE6R_VnKt_WEj-5" value="&lt;div style=&quot;box-sizing: border-box ; width: 100% ; background: #e4e4e4 ; padding: 2px&quot;&gt;t_tech_template_tech_assign&lt;/div&gt;&lt;table style=&quot;width: 100% ; font-size: 1em&quot; cellpadding=&quot;2&quot; cellspacing=&quot;0&quot;&gt;&lt;tbody&gt;&lt;tr&gt;&lt;td&gt;cartype&lt;br&gt;technical&lt;br&gt;ref_type&lt;br&gt;&lt;br&gt;&lt;/td&gt;&lt;td&gt;&lt;br&gt;&lt;/td&gt;&lt;/tr&gt;&lt;/tbody&gt;&lt;/table&gt;" style="verticalAlign=top;align=left;overflow=fill;html=1;" parent="1" vertex="1">
          <mxGeometry x="190" y="200" width="180" height="70" as="geometry" />
        </mxCell>
        <mxCell id="AUBJ6H6WE6R_VnKt_WEj-10" style="edgeStyle=orthogonalEdgeStyle;rounded=0;orthogonalLoop=1;jettySize=auto;html=1;entryX=0.5;entryY=1;entryDx=0;entryDy=0;" parent="1" source="AUBJ6H6WE6R_VnKt_WEj-8" target="AUBJ6H6WE6R_VnKt_WEj-9" edge="1">
          <mxGeometry relative="1" as="geometry" />
        </mxCell>
        <mxCell id="AUBJ6H6WE6R_VnKt_WEj-8" value="&lt;div style=&quot;box-sizing: border-box ; width: 100% ; background: #e4e4e4 ; padding: 2px&quot;&gt;t_tech_data_car&lt;/div&gt;&lt;table style=&quot;width: 100% ; font-size: 1em&quot; cellpadding=&quot;2&quot; cellspacing=&quot;0&quot;&gt;&lt;tbody&gt;&lt;tr&gt;&lt;td&gt;kpb&lt;br&gt;name&lt;br&gt;JV?&amp;nbsp; folder?&lt;br&gt;version?&lt;br&gt;comments&lt;/td&gt;&lt;td&gt;&lt;br&gt;&lt;/td&gt;&lt;/tr&gt;&lt;/tbody&gt;&lt;/table&gt;" style="verticalAlign=top;align=left;overflow=fill;html=1;" parent="1" vertex="1">
          <mxGeometry x="-40" y="470" width="180" height="90" as="geometry" />
        </mxCell>
        <mxCell id="AUBJ6H6WE6R_VnKt_WEj-9" value="&lt;div style=&quot;box-sizing: border-box ; width: 100% ; background: #e4e4e4 ; padding: 2px&quot;&gt;t_tech_data_folder/jv?&lt;/div&gt;&lt;table style=&quot;width: 100% ; font-size: 1em&quot; cellpadding=&quot;2&quot; cellspacing=&quot;0&quot;&gt;&lt;tbody&gt;&lt;tr&gt;&lt;td&gt;&lt;br&gt;JV?&amp;nbsp; folder?&lt;/td&gt;&lt;td&gt;&lt;br&gt;&lt;/td&gt;&lt;/tr&gt;&lt;/tbody&gt;&lt;/table&gt;" style="verticalAlign=top;align=left;overflow=fill;html=1;" parent="1" vertex="1">
          <mxGeometry x="-40" y="330" width="180" height="90" as="geometry" />
        </mxCell>
        <mxCell id="AUBJ6H6WE6R_VnKt_WEj-12" style="edgeStyle=orthogonalEdgeStyle;rounded=0;orthogonalLoop=1;jettySize=auto;html=1;entryX=0.5;entryY=1;entryDx=0;entryDy=0;" parent="1" source="AUBJ6H6WE6R_VnKt_WEj-11" target="AUBJ6H6WE6R_VnKt_WEj-8" edge="1">
          <mxGeometry relative="1" as="geometry" />
        </mxCell>
        <mxCell id="AUBJ6H6WE6R_VnKt_WEj-14" style="edgeStyle=orthogonalEdgeStyle;rounded=0;orthogonalLoop=1;jettySize=auto;html=1;entryX=0;entryY=0.5;entryDx=0;entryDy=0;" parent="1" source="AUBJ6H6WE6R_VnKt_WEj-11" target="AUBJ6H6WE6R_VnKt_WEj-13" edge="1">
          <mxGeometry relative="1" as="geometry" />
        </mxCell>
        <mxCell id="AUBJ6H6WE6R_VnKt_WEj-16" style="edgeStyle=orthogonalEdgeStyle;rounded=0;orthogonalLoop=1;jettySize=auto;html=1;entryX=0;entryY=0.75;entryDx=0;entryDy=0;" parent="1" source="AUBJ6H6WE6R_VnKt_WEj-11" target="AUBJ6H6WE6R_VnKt_WEj-15" edge="1">
          <mxGeometry relative="1" as="geometry" />
        </mxCell>
        <mxCell id="AUBJ6H6WE6R_VnKt_WEj-11" value="&lt;div style=&quot;box-sizing: border-box ; width: 100% ; background: #e4e4e4 ; padding: 2px&quot;&gt;t_tech_data_egc&lt;/div&gt;&lt;table style=&quot;width: 100% ; font-size: 1em&quot; cellpadding=&quot;2&quot; cellspacing=&quot;0&quot;&gt;&lt;tbody&gt;&lt;tr&gt;&lt;td&gt;car&lt;br&gt;titile&lt;br&gt;status&lt;br&gt;cartype&lt;/td&gt;&lt;td&gt;&lt;br&gt;&lt;/td&gt;&lt;/tr&gt;&lt;/tbody&gt;&lt;/table&gt;" style="verticalAlign=top;align=left;overflow=fill;html=1;" parent="1" vertex="1">
          <mxGeometry x="-40" y="600" width="180" height="90" as="geometry" />
        </mxCell>
        <mxCell id="AUBJ6H6WE6R_VnKt_WEj-13" value="&lt;div style=&quot;box-sizing: border-box ; width: 100% ; background: #e4e4e4 ; padding: 2px&quot;&gt;t_tech_data_identify&lt;/div&gt;&lt;table style=&quot;width: 100% ; font-size: 1em&quot; cellpadding=&quot;2&quot; cellspacing=&quot;0&quot;&gt;&lt;tbody&gt;&lt;tr&gt;&lt;td&gt;egc&lt;br&gt;name&lt;br&gt;value&lt;/td&gt;&lt;td&gt;&lt;br&gt;&lt;/td&gt;&lt;/tr&gt;&lt;/tbody&gt;&lt;/table&gt;" style="verticalAlign=top;align=left;overflow=fill;html=1;" parent="1" vertex="1">
          <mxGeometry x="250" y="430" width="180" height="90" as="geometry" />
        </mxCell>
        <mxCell id="AUBJ6H6WE6R_VnKt_WEj-15" value="&lt;div style=&quot;box-sizing: border-box ; width: 100% ; background: #e4e4e4 ; padding: 2px&quot;&gt;t_tech_data_technical&lt;/div&gt;&lt;table style=&quot;width: 100% ; font-size: 1em&quot; cellpadding=&quot;2&quot; cellspacing=&quot;0&quot;&gt;&lt;tbody&gt;&lt;tr&gt;&lt;td&gt;egc&lt;br&gt;name&lt;br&gt;value&lt;/td&gt;&lt;td&gt;&lt;br&gt;&lt;/td&gt;&lt;/tr&gt;&lt;/tbody&gt;&lt;/table&gt;" style="verticalAlign=top;align=left;overflow=fill;html=1;" parent="1" vertex="1">
          <mxGeometry x="260" y="580" width="180" height="90" as="geometry" />
        </mxCell>
        <mxCell id="AUBJ6H6WE6R_VnKt_WEj-17" value="&lt;div style=&quot;box-sizing: border-box ; width: 100% ; background: #e4e4e4 ; padding: 2px&quot;&gt;t_sales_jv/brand?&lt;/div&gt;&lt;table style=&quot;width: 100% ; font-size: 1em&quot; cellpadding=&quot;2&quot; cellspacing=&quot;0&quot;&gt;&lt;tbody&gt;&lt;tr&gt;&lt;td&gt;name&lt;/td&gt;&lt;td&gt;&lt;br&gt;&lt;/td&gt;&lt;/tr&gt;&lt;/tbody&gt;&lt;/table&gt;" style="verticalAlign=top;align=left;overflow=fill;html=1;" parent="1" vertex="1">
          <mxGeometry x="-50" y="780" width="180" height="90" as="geometry" />
        </mxCell>
        <mxCell id="AUBJ6H6WE6R_VnKt_WEj-19" style="edgeStyle=orthogonalEdgeStyle;rounded=0;orthogonalLoop=1;jettySize=auto;html=1;entryX=0.5;entryY=1;entryDx=0;entryDy=0;" parent="1" source="AUBJ6H6WE6R_VnKt_WEj-18" target="AUBJ6H6WE6R_VnKt_WEj-17" edge="1">
          <mxGeometry relative="1" as="geometry" />
        </mxCell>
        <mxCell id="AUBJ6H6WE6R_VnKt_WEj-18" value="&lt;div style=&quot;box-sizing: border-box ; width: 100% ; background: #e4e4e4 ; padding: 2px&quot;&gt;t_sales_pr&lt;/div&gt;&lt;table style=&quot;width: 100% ; font-size: 1em&quot; cellpadding=&quot;2&quot; cellspacing=&quot;0&quot;&gt;&lt;tbody&gt;&lt;tr&gt;&lt;td&gt;name&lt;br&gt;pr no&lt;br&gt;jv/brand?&lt;/td&gt;&lt;td&gt;&lt;br&gt;&lt;/td&gt;&lt;/tr&gt;&lt;/tbody&gt;&lt;/table&gt;" style="verticalAlign=top;align=left;overflow=fill;html=1;" parent="1" vertex="1">
          <mxGeometry x="-50" y="940" width="180" height="90" as="geometry" />
        </mxCell>
        <mxCell id="AUBJ6H6WE6R_VnKt_WEj-21" style="edgeStyle=orthogonalEdgeStyle;rounded=0;orthogonalLoop=1;jettySize=auto;html=1;entryX=0.5;entryY=1;entryDx=0;entryDy=0;" parent="1" source="AUBJ6H6WE6R_VnKt_WEj-20" target="AUBJ6H6WE6R_VnKt_WEj-18" edge="1">
          <mxGeometry relative="1" as="geometry" />
        </mxCell>
        <mxCell id="AUBJ6H6WE6R_VnKt_WEj-20" value="&lt;div style=&quot;box-sizing: border-box ; width: 100% ; background: #e4e4e4 ; padding: 2px&quot;&gt;t_sales_pr_car&lt;/div&gt;&lt;table style=&quot;width: 100% ; font-size: 1em&quot; cellpadding=&quot;2&quot; cellspacing=&quot;0&quot;&gt;&lt;tbody&gt;&lt;tr&gt;&lt;td&gt;pr&lt;br&gt;kpb&lt;br&gt;name&lt;br&gt;&lt;br&gt;&lt;/td&gt;&lt;td&gt;&lt;br&gt;&lt;/td&gt;&lt;/tr&gt;&lt;/tbody&gt;&lt;/table&gt;" style="verticalAlign=top;align=left;overflow=fill;html=1;" parent="1" vertex="1">
          <mxGeometry x="-50" y="1100" width="180" height="90" as="geometry" />
        </mxCell>
        <mxCell id="AUBJ6H6WE6R_VnKt_WEj-23" style="edgeStyle=orthogonalEdgeStyle;rounded=0;orthogonalLoop=1;jettySize=auto;html=1;entryX=0.539;entryY=0.984;entryDx=0;entryDy=0;entryPerimeter=0;" parent="1" source="AUBJ6H6WE6R_VnKt_WEj-22" target="AUBJ6H6WE6R_VnKt_WEj-20" edge="1">
          <mxGeometry relative="1" as="geometry" />
        </mxCell>
        <mxCell id="AUBJ6H6WE6R_VnKt_WEj-22" value="&lt;div style=&quot;box-sizing: border-box ; width: 100% ; background: #e4e4e4 ; padding: 2px&quot;&gt;t_sales_pr_egc&lt;/div&gt;&lt;table style=&quot;width: 100% ; font-size: 1em&quot; cellpadding=&quot;2&quot; cellspacing=&quot;0&quot;&gt;&lt;tbody&gt;&lt;tr&gt;&lt;td&gt;car&lt;br&gt;title&lt;br&gt;&lt;br&gt;&lt;/td&gt;&lt;td&gt;&lt;br&gt;&lt;/td&gt;&lt;/tr&gt;&lt;/tbody&gt;&lt;/table&gt;" style="verticalAlign=top;align=left;overflow=fill;html=1;" parent="1" vertex="1">
          <mxGeometry x="-50" y="1250" width="180" height="70" as="geometry" />
        </mxCell>
        <mxCell id="AUBJ6H6WE6R_VnKt_WEj-25" style="edgeStyle=orthogonalEdgeStyle;rounded=0;orthogonalLoop=1;jettySize=auto;html=1;entryX=1;entryY=0.5;entryDx=0;entryDy=0;" parent="1" source="AUBJ6H6WE6R_VnKt_WEj-24" target="AUBJ6H6WE6R_VnKt_WEj-22" edge="1">
          <mxGeometry relative="1" as="geometry" />
        </mxCell>
        <mxCell id="AUBJ6H6WE6R_VnKt_WEj-24" value="&lt;div style=&quot;box-sizing: border-box ; width: 100% ; background: #e4e4e4 ; padding: 2px&quot;&gt;t_sales_pr_egc_ident&lt;/div&gt;&lt;table style=&quot;width: 100% ; font-size: 1em&quot; cellpadding=&quot;2&quot; cellspacing=&quot;0&quot;&gt;&lt;tbody&gt;&lt;tr&gt;&lt;td&gt;egc&lt;br&gt;name&lt;br&gt;value&lt;br&gt;&lt;br&gt;&lt;/td&gt;&lt;td&gt;&lt;br&gt;&lt;/td&gt;&lt;/tr&gt;&lt;/tbody&gt;&lt;/table&gt;" style="verticalAlign=top;align=left;overflow=fill;html=1;" parent="1" vertex="1">
          <mxGeometry x="207" y="1100" width="180" height="70" as="geometry" />
        </mxCell>
        <mxCell id="AUBJ6H6WE6R_VnKt_WEj-27" style="edgeStyle=orthogonalEdgeStyle;rounded=0;orthogonalLoop=1;jettySize=auto;html=1;" parent="1" source="AUBJ6H6WE6R_VnKt_WEj-26" edge="1">
          <mxGeometry relative="1" as="geometry">
            <mxPoint x="130" y="1290" as="targetPoint" />
          </mxGeometry>
        </mxCell>
        <mxCell id="AUBJ6H6WE6R_VnKt_WEj-26" value="&lt;div style=&quot;box-sizing: border-box ; width: 100% ; background: #e4e4e4 ; padding: 2px&quot;&gt;t_sales_pr_egc_sales&lt;/div&gt;&lt;table style=&quot;width: 100% ; font-size: 1em&quot; cellpadding=&quot;2&quot; cellspacing=&quot;0&quot;&gt;&lt;tbody&gt;&lt;tr&gt;&lt;td&gt;egc&lt;br&gt;year&lt;br&gt;value&lt;br&gt;version&lt;br&gt;&lt;br&gt;&lt;/td&gt;&lt;td&gt;&lt;br&gt;&lt;/td&gt;&lt;/tr&gt;&lt;/tbody&gt;&lt;/table&gt;" style="verticalAlign=top;align=left;overflow=fill;html=1;" parent="1" vertex="1">
          <mxGeometry x="207" y="1260" width="180" height="110" as="geometry" />
        </mxCell>
        <mxCell id="AUBJ6H6WE6R_VnKt_WEj-30" style="edgeStyle=orthogonalEdgeStyle;rounded=0;orthogonalLoop=1;jettySize=auto;html=1;entryX=0;entryY=0.5;entryDx=0;entryDy=0;" parent="1" source="AUBJ6H6WE6R_VnKt_WEj-28" target="AUBJ6H6WE6R_VnKt_WEj-8" edge="1">
          <mxGeometry relative="1" as="geometry" />
        </mxCell>
        <mxCell id="AUBJ6H6WE6R_VnKt_WEj-31" style="edgeStyle=orthogonalEdgeStyle;rounded=0;orthogonalLoop=1;jettySize=auto;html=1;entryX=0.548;entryY=1.011;entryDx=0;entryDy=0;entryPerimeter=0;" parent="1" source="AUBJ6H6WE6R_VnKt_WEj-28" target="AUBJ6H6WE6R_VnKt_WEj-29" edge="1">
          <mxGeometry relative="1" as="geometry" />
        </mxCell>
        <mxCell id="AUBJ6H6WE6R_VnKt_WEj-28" value="&lt;div style=&quot;box-sizing: border-box ; width: 100% ; background: #e4e4e4 ; padding: 2px&quot;&gt;t_tech_data_car_source&lt;/div&gt;&lt;table style=&quot;width: 100% ; font-size: 1em&quot; cellpadding=&quot;2&quot; cellspacing=&quot;0&quot;&gt;&lt;tbody&gt;&lt;tr&gt;&lt;td&gt;car&lt;br&gt;file&lt;/td&gt;&lt;td&gt;&lt;br&gt;&lt;/td&gt;&lt;/tr&gt;&lt;/tbody&gt;&lt;/table&gt;" style="verticalAlign=top;align=left;overflow=fill;html=1;" parent="1" vertex="1">
          <mxGeometry x="-310" y="470" width="180" height="90" as="geometry" />
        </mxCell>
        <mxCell id="AUBJ6H6WE6R_VnKt_WEj-29" value="&lt;div style=&quot;box-sizing: border-box ; width: 100% ; background: #e4e4e4 ; padding: 2px&quot;&gt;t_file&lt;/div&gt;&lt;table style=&quot;width: 100% ; font-size: 1em&quot; cellpadding=&quot;2&quot; cellspacing=&quot;0&quot;&gt;&lt;tbody&gt;&lt;tr&gt;&lt;td&gt;id&lt;br&gt;filename&lt;br&gt;path&lt;br&gt;extension&lt;/td&gt;&lt;td&gt;&lt;br&gt;&lt;/td&gt;&lt;/tr&gt;&lt;/tbody&gt;&lt;/table&gt;" style="verticalAlign=top;align=left;overflow=fill;html=1;" parent="1" vertex="1">
          <mxGeometry x="-310" y="300" width="180" height="90" as="geometry" />
        </mxCell>
        <mxCell id="AUBJ6H6WE6R_VnKt_WEj-32" value="技术数据模块" style="html=1;" parent="1" vertex="1">
          <mxGeometry x="-523" y="70" width="110" height="50" as="geometry" />
        </mxCell>
        <mxCell id="AUBJ6H6WE6R_VnKt_WEj-33" value="产量数据模块" style="html=1;" parent="1" vertex="1">
          <mxGeometry x="-500" y="780" width="110" height="50" as="geometry" />
        </mxCell>
        <mxCell id="AUBJ6H6WE6R_VnKt_WEj-34" value="" style="line;strokeWidth=1;fillColor=none;align=left;verticalAlign=middle;spacingTop=-1;spacingLeft=3;spacingRight=3;rotatable=0;labelPosition=right;points=[];portConstraint=eastwest;" parent="1" vertex="1">
          <mxGeometry x="-540" y="720" width="1050" height="8" as="geometry" />
        </mxCell>
        <mxCell id="AUBJ6H6WE6R_VnKt_WEj-35" value="" style="line;strokeWidth=1;fillColor=none;align=left;verticalAlign=middle;spacingTop=-1;spacingLeft=3;spacingRight=3;rotatable=0;labelPosition=right;points=[];portConstraint=eastwest;" parent="1" vertex="1">
          <mxGeometry x="-790" y="1420" width="1317" height="8" as="geometry" />
        </mxCell>
        <mxCell id="AUBJ6H6WE6R_VnKt_WEj-36" value="政策" style="html=1;" parent="1" vertex="1">
          <mxGeometry x="-490" y="1470" width="110" height="50" as="geometry" />
        </mxCell>
        <mxCell id="AUBJ6H6WE6R_VnKt_WEj-39" value="&lt;div style=&quot;box-sizing: border-box ; width: 100% ; background: #e4e4e4 ; padding: 2px&quot;&gt;t_cpm_premises&lt;/div&gt;&lt;table style=&quot;width: 100% ; font-size: 1em&quot; cellpadding=&quot;2&quot; cellspacing=&quot;0&quot;&gt;&lt;tbody&gt;&lt;tr&gt;&lt;td&gt;name&lt;br&gt;prno&lt;br&gt;status&lt;/td&gt;&lt;td&gt;&lt;br&gt;&lt;/td&gt;&lt;/tr&gt;&lt;/tbody&gt;&lt;/table&gt;" style="verticalAlign=top;align=left;overflow=fill;html=1;" parent="1" vertex="1">
          <mxGeometry x="-320" y="1480" width="180" height="90" as="geometry" />
        </mxCell>
        <mxCell id="AUBJ6H6WE6R_VnKt_WEj-41" style="edgeStyle=orthogonalEdgeStyle;rounded=0;orthogonalLoop=1;jettySize=auto;html=1;" parent="1" source="AUBJ6H6WE6R_VnKt_WEj-40" target="AUBJ6H6WE6R_VnKt_WEj-39" edge="1">
          <mxGeometry relative="1" as="geometry" />
        </mxCell>
        <mxCell id="AUBJ6H6WE6R_VnKt_WEj-40" value="&lt;div style=&quot;box-sizing: border-box ; width: 100% ; background: #e4e4e4 ; padding: 2px&quot;&gt;t_cpm_parameter&lt;/div&gt;&lt;table style=&quot;width: 100% ; font-size: 1em&quot; cellpadding=&quot;2&quot; cellspacing=&quot;0&quot;&gt;&lt;tbody&gt;&lt;tr&gt;&lt;td&gt;cpm&lt;br&gt;name&lt;br&gt;value&lt;br&gt;decimal&lt;/td&gt;&lt;td&gt;&lt;br&gt;&lt;/td&gt;&lt;/tr&gt;&lt;/tbody&gt;&lt;/table&gt;" style="verticalAlign=top;align=left;overflow=fill;html=1;" parent="1" vertex="1">
          <mxGeometry x="-20" y="1480" width="180" height="90" as="geometry" />
        </mxCell>
        <mxCell id="AUBJ6H6WE6R_VnKt_WEj-43" style="edgeStyle=orthogonalEdgeStyle;rounded=0;orthogonalLoop=1;jettySize=auto;html=1;entryX=1;entryY=0.5;entryDx=0;entryDy=0;" parent="1" source="AUBJ6H6WE6R_VnKt_WEj-42" target="AUBJ6H6WE6R_VnKt_WEj-40" edge="1">
          <mxGeometry relative="1" as="geometry" />
        </mxCell>
        <mxCell id="AUBJ6H6WE6R_VnKt_WEj-42" value="&lt;div style=&quot;box-sizing: border-box ; width: 100% ; background: #e4e4e4 ; padding: 2px&quot;&gt;t_cpm_parameter_year&lt;/div&gt;&lt;table style=&quot;width: 100% ; font-size: 1em&quot; cellpadding=&quot;2&quot; cellspacing=&quot;0&quot;&gt;&lt;tbody&gt;&lt;tr&gt;&lt;td&gt;param&lt;br&gt;year-start&lt;br&gt;year-end&lt;br&gt;value&lt;/td&gt;&lt;td&gt;&lt;br&gt;&lt;/td&gt;&lt;/tr&gt;&lt;/tbody&gt;&lt;/table&gt;" style="verticalAlign=top;align=left;overflow=fill;html=1;" parent="1" vertex="1">
          <mxGeometry x="250" y="1480" width="180" height="90" as="geometry" />
        </mxCell>
        <mxCell id="AUBJ6H6WE6R_VnKt_WEj-45" style="edgeStyle=orthogonalEdgeStyle;rounded=0;orthogonalLoop=1;jettySize=auto;html=1;entryX=1;entryY=0.5;entryDx=0;entryDy=0;" parent="1" source="AUBJ6H6WE6R_VnKt_WEj-44" target="AUBJ6H6WE6R_VnKt_WEj-39" edge="1">
          <mxGeometry relative="1" as="geometry" />
        </mxCell>
        <mxCell id="AUBJ6H6WE6R_VnKt_WEj-44" value="&lt;div style=&quot;box-sizing: border-box ; width: 100% ; background: #e4e4e4 ; padding: 2px&quot;&gt;t_cpm_rela&lt;/div&gt;&lt;table style=&quot;width: 100% ; font-size: 1em&quot; cellpadding=&quot;2&quot; cellspacing=&quot;0&quot;&gt;&lt;tbody&gt;&lt;tr&gt;&lt;td&gt;cpm&lt;br&gt;name&lt;br&gt;value&lt;br&gt;decimal&lt;br&gt;unit&lt;br&gt;json&lt;br&gt;function....&lt;/td&gt;&lt;td&gt;&lt;br&gt;&lt;/td&gt;&lt;/tr&gt;&lt;/tbody&gt;&lt;/table&gt;" style="verticalAlign=top;align=left;overflow=fill;html=1;" parent="1" vertex="1">
          <mxGeometry x="-20" y="1624" width="180" height="130" as="geometry" />
        </mxCell>
        <mxCell id="AUBJ6H6WE6R_VnKt_WEj-47" style="edgeStyle=orthogonalEdgeStyle;rounded=0;orthogonalLoop=1;jettySize=auto;html=1;entryX=1;entryY=0.5;entryDx=0;entryDy=0;" parent="1" source="AUBJ6H6WE6R_VnKt_WEj-46" target="AUBJ6H6WE6R_VnKt_WEj-39" edge="1">
          <mxGeometry relative="1" as="geometry" />
        </mxCell>
        <mxCell id="AUBJ6H6WE6R_VnKt_WEj-46" value="&lt;div style=&quot;box-sizing: border-box ; width: 100% ; background: #e4e4e4 ; padding: 2px&quot;&gt;t_cpm_fleet&lt;/div&gt;&lt;table style=&quot;width: 100% ; font-size: 1em&quot; cellpadding=&quot;2&quot; cellspacing=&quot;0&quot;&gt;&lt;tbody&gt;&lt;tr&gt;&lt;td&gt;cpm&lt;br&gt;name&lt;br&gt;value&lt;br&gt;decimal&lt;br&gt;unit&lt;br&gt;json&lt;br&gt;express&lt;/td&gt;&lt;td&gt;&lt;br&gt;&lt;/td&gt;&lt;/tr&gt;&lt;/tbody&gt;&lt;/table&gt;" style="verticalAlign=top;align=left;overflow=fill;html=1;" parent="1" vertex="1">
          <mxGeometry x="-20" y="1820" width="200" height="120" as="geometry" />
        </mxCell>
        <mxCell id="AUBJ6H6WE6R_VnKt_WEj-49" style="edgeStyle=orthogonalEdgeStyle;rounded=0;orthogonalLoop=1;jettySize=auto;html=1;entryX=0;entryY=0.5;entryDx=0;entryDy=0;" parent="1" source="AUBJ6H6WE6R_VnKt_WEj-48" target="AUBJ6H6WE6R_VnKt_WEj-44" edge="1">
          <mxGeometry relative="1" as="geometry" />
        </mxCell>
        <mxCell id="AUBJ6H6WE6R_VnKt_WEj-50" style="edgeStyle=orthogonalEdgeStyle;rounded=0;orthogonalLoop=1;jettySize=auto;html=1;" parent="1" source="AUBJ6H6WE6R_VnKt_WEj-48" target="AUBJ6H6WE6R_VnKt_WEj-46" edge="1">
          <mxGeometry relative="1" as="geometry" />
        </mxCell>
        <mxCell id="AUBJ6H6WE6R_VnKt_WEj-48" value="&lt;div style=&quot;box-sizing: border-box ; width: 100% ; background: #e4e4e4 ; padding: 2px&quot;&gt;t_cpm_ref_fleet_rela&lt;/div&gt;&lt;table style=&quot;width: 100% ; font-size: 1em&quot; cellpadding=&quot;2&quot; cellspacing=&quot;0&quot;&gt;&lt;tbody&gt;&lt;tr&gt;&lt;td&gt;fleet&lt;br&gt;rela&lt;/td&gt;&lt;td&gt;&lt;br&gt;&lt;/td&gt;&lt;/tr&gt;&lt;/tbody&gt;&lt;/table&gt;" style="verticalAlign=top;align=left;overflow=fill;html=1;" parent="1" vertex="1">
          <mxGeometry x="-350" y="1890" width="180" height="90" as="geometry" />
        </mxCell>
        <mxCell id="AUBJ6H6WE6R_VnKt_WEj-52" style="edgeStyle=orthogonalEdgeStyle;rounded=0;orthogonalLoop=1;jettySize=auto;html=1;" parent="1" source="AUBJ6H6WE6R_VnKt_WEj-51" target="AUBJ6H6WE6R_VnKt_WEj-46" edge="1">
          <mxGeometry relative="1" as="geometry" />
        </mxCell>
        <mxCell id="AUBJ6H6WE6R_VnKt_WEj-53" style="edgeStyle=orthogonalEdgeStyle;rounded=0;orthogonalLoop=1;jettySize=auto;html=1;entryX=-0.001;entryY=0.842;entryDx=0;entryDy=0;entryPerimeter=0;" parent="1" source="AUBJ6H6WE6R_VnKt_WEj-51" target="AUBJ6H6WE6R_VnKt_WEj-46" edge="1">
          <mxGeometry relative="1" as="geometry" />
        </mxCell>
        <mxCell id="AUBJ6H6WE6R_VnKt_WEj-51" value="&lt;div style=&quot;box-sizing: border-box ; width: 100% ; background: #e4e4e4 ; padding: 2px&quot;&gt;t_cpm_ref_fleet_fleet&lt;/div&gt;&lt;table style=&quot;width: 100% ; font-size: 1em&quot; cellpadding=&quot;2&quot; cellspacing=&quot;0&quot;&gt;&lt;tbody&gt;&lt;tr&gt;&lt;td&gt;fleet&lt;br&gt;fleet&lt;/td&gt;&lt;td&gt;&lt;br&gt;&lt;/td&gt;&lt;/tr&gt;&lt;/tbody&gt;&lt;/table&gt;" style="verticalAlign=top;align=left;overflow=fill;html=1;" parent="1" vertex="1">
          <mxGeometry x="-160" y="2030" width="180" height="90" as="geometry" />
        </mxCell>
        <mxCell id="AUBJ6H6WE6R_VnKt_WEj-55" style="edgeStyle=orthogonalEdgeStyle;rounded=0;orthogonalLoop=1;jettySize=auto;html=1;" parent="1" source="AUBJ6H6WE6R_VnKt_WEj-54" target="AUBJ6H6WE6R_VnKt_WEj-40" edge="1">
          <mxGeometry relative="1" as="geometry">
            <Array as="points">
              <mxPoint x="-180" y="1669" />
              <mxPoint x="-50" y="1669" />
              <mxPoint x="-50" y="1525" />
            </Array>
          </mxGeometry>
        </mxCell>
        <mxCell id="AUBJ6H6WE6R_VnKt_WEj-56" style="edgeStyle=orthogonalEdgeStyle;rounded=0;orthogonalLoop=1;jettySize=auto;html=1;" parent="1" source="AUBJ6H6WE6R_VnKt_WEj-54" target="AUBJ6H6WE6R_VnKt_WEj-46" edge="1">
          <mxGeometry relative="1" as="geometry">
            <mxPoint x="10" y="1790" as="targetPoint" />
            <Array as="points">
              <mxPoint x="-50" y="1785" />
              <mxPoint x="-50" y="1790" />
              <mxPoint x="80" y="1790" />
            </Array>
          </mxGeometry>
        </mxCell>
        <mxCell id="AUBJ6H6WE6R_VnKt_WEj-54" value="&lt;div style=&quot;box-sizing: border-box ; width: 100% ; background: #e4e4e4 ; padding: 2px&quot;&gt;t_cpm_ref_fleet_param&lt;/div&gt;&lt;table style=&quot;width: 100% ; font-size: 1em&quot; cellpadding=&quot;2&quot; cellspacing=&quot;0&quot;&gt;&lt;tbody&gt;&lt;tr&gt;&lt;td&gt;fleet&lt;br&gt;param&lt;/td&gt;&lt;td&gt;&lt;br&gt;&lt;/td&gt;&lt;/tr&gt;&lt;/tbody&gt;&lt;/table&gt;" style="verticalAlign=top;align=left;overflow=fill;html=1;" parent="1" vertex="1">
          <mxGeometry x="-360" y="1740" width="180" height="90" as="geometry" />
        </mxCell>
        <mxCell id="AUBJ6H6WE6R_VnKt_WEj-58" style="edgeStyle=orthogonalEdgeStyle;rounded=0;orthogonalLoop=1;jettySize=auto;html=1;" parent="1" source="AUBJ6H6WE6R_VnKt_WEj-57" target="AUBJ6H6WE6R_VnKt_WEj-40" edge="1">
          <mxGeometry relative="1" as="geometry">
            <Array as="points">
              <mxPoint x="-280" y="1590" />
              <mxPoint x="70" y="1590" />
            </Array>
          </mxGeometry>
        </mxCell>
        <mxCell id="AUBJ6H6WE6R_VnKt_WEj-59" style="edgeStyle=orthogonalEdgeStyle;rounded=0;orthogonalLoop=1;jettySize=auto;html=1;" parent="1" source="AUBJ6H6WE6R_VnKt_WEj-57" target="AUBJ6H6WE6R_VnKt_WEj-44" edge="1">
          <mxGeometry relative="1" as="geometry">
            <Array as="points">
              <mxPoint x="-40" y="1645" />
              <mxPoint x="-40" y="1645" />
            </Array>
          </mxGeometry>
        </mxCell>
        <mxCell id="AUBJ6H6WE6R_VnKt_WEj-57" value="&lt;div style=&quot;box-sizing: border-box ; width: 100% ; background: #e4e4e4 ; padding: 2px&quot;&gt;t_cpm_ref_rela_param&lt;/div&gt;&lt;table style=&quot;width: 100% ; font-size: 1em&quot; cellpadding=&quot;2&quot; cellspacing=&quot;0&quot;&gt;&lt;tbody&gt;&lt;tr&gt;&lt;td&gt;rela&lt;br&gt;param&lt;/td&gt;&lt;td&gt;&lt;br&gt;&lt;/td&gt;&lt;/tr&gt;&lt;/tbody&gt;&lt;/table&gt;" style="verticalAlign=top;align=left;overflow=fill;html=1;" parent="1" vertex="1">
          <mxGeometry x="-370" y="1600" width="180" height="90" as="geometry" />
        </mxCell>
        <mxCell id="AUBJ6H6WE6R_VnKt_WEj-61" style="edgeStyle=orthogonalEdgeStyle;rounded=0;orthogonalLoop=1;jettySize=auto;html=1;entryX=0.986;entryY=0.352;entryDx=0;entryDy=0;entryPerimeter=0;" parent="1" source="AUBJ6H6WE6R_VnKt_WEj-60" target="AUBJ6H6WE6R_VnKt_WEj-44" edge="1">
          <mxGeometry relative="1" as="geometry" />
        </mxCell>
        <mxCell id="AUBJ6H6WE6R_VnKt_WEj-60" value="&lt;div style=&quot;box-sizing: border-box ; width: 100% ; background: #e4e4e4 ; padding: 2px&quot;&gt;t_cpm_rela_condition&lt;/div&gt;&lt;table style=&quot;width: 100% ; font-size: 1em&quot; cellpadding=&quot;2&quot; cellspacing=&quot;0&quot;&gt;&lt;tbody&gt;&lt;tr&gt;&lt;td&gt;rela&lt;br&gt;考虑是否保留此表&lt;/td&gt;&lt;td&gt;&lt;br&gt;&lt;/td&gt;&lt;/tr&gt;&lt;/tbody&gt;&lt;/table&gt;" style="verticalAlign=top;align=left;overflow=fill;html=1;" parent="1" vertex="1">
          <mxGeometry x="270" y="1600" width="180" height="80" as="geometry" />
        </mxCell>
        <mxCell id="AUBJ6H6WE6R_VnKt_WEj-63" style="edgeStyle=orthogonalEdgeStyle;rounded=0;orthogonalLoop=1;jettySize=auto;html=1;" parent="1" source="AUBJ6H6WE6R_VnKt_WEj-62" target="AUBJ6H6WE6R_VnKt_WEj-44" edge="1">
          <mxGeometry relative="1" as="geometry" />
        </mxCell>
        <mxCell id="AUBJ6H6WE6R_VnKt_WEj-62" value="&lt;div style=&quot;box-sizing: border-box ; width: 100% ; background: #e4e4e4 ; padding: 2px&quot;&gt;t_cpm_rela_condition&lt;/div&gt;&lt;table style=&quot;width: 100% ; font-size: 1em&quot; cellpadding=&quot;2&quot; cellspacing=&quot;0&quot;&gt;&lt;tbody&gt;&lt;tr&gt;&lt;td&gt;rela&lt;br&gt;json（UI） blob&lt;br&gt;考虑是否使用此表&lt;/td&gt;&lt;td&gt;&lt;br&gt;&lt;/td&gt;&lt;/tr&gt;&lt;/tbody&gt;&lt;/table&gt;" style="verticalAlign=top;align=left;overflow=fill;html=1;" parent="1" vertex="1">
          <mxGeometry x="270" y="1700" width="180" height="80" as="geometry" />
        </mxCell>
        <mxCell id="AUBJ6H6WE6R_VnKt_WEj-67" style="edgeStyle=orthogonalEdgeStyle;rounded=0;orthogonalLoop=1;jettySize=auto;html=1;entryX=1.003;entryY=0.422;entryDx=0;entryDy=0;entryPerimeter=0;" parent="1" source="AUBJ6H6WE6R_VnKt_WEj-64" target="AUBJ6H6WE6R_VnKt_WEj-46" edge="1">
          <mxGeometry relative="1" as="geometry" />
        </mxCell>
        <mxCell id="AUBJ6H6WE6R_VnKt_WEj-64" value="&lt;div style=&quot;box-sizing: border-box ; width: 100% ; background: #e4e4e4 ; padding: 2px&quot;&gt;t_cpm_fleet_condition&lt;/div&gt;&lt;table style=&quot;width: 100% ; font-size: 1em&quot; cellpadding=&quot;2&quot; cellspacing=&quot;0&quot;&gt;&lt;tbody&gt;&lt;tr&gt;&lt;td&gt;fleet&lt;br&gt;考虑是否保留此表&lt;/td&gt;&lt;td&gt;&lt;br&gt;&lt;/td&gt;&lt;/tr&gt;&lt;/tbody&gt;&lt;/table&gt;" style="verticalAlign=top;align=left;overflow=fill;html=1;" parent="1" vertex="1">
          <mxGeometry x="250" y="1810" width="180" height="80" as="geometry" />
        </mxCell>
        <mxCell id="AUBJ6H6WE6R_VnKt_WEj-66" style="edgeStyle=orthogonalEdgeStyle;rounded=0;orthogonalLoop=1;jettySize=auto;html=1;entryX=1.003;entryY=0.602;entryDx=0;entryDy=0;entryPerimeter=0;" parent="1" source="AUBJ6H6WE6R_VnKt_WEj-65" target="AUBJ6H6WE6R_VnKt_WEj-46" edge="1">
          <mxGeometry relative="1" as="geometry">
            <mxPoint x="190" y="1900" as="targetPoint" />
          </mxGeometry>
        </mxCell>
        <mxCell id="AUBJ6H6WE6R_VnKt_WEj-65" value="&lt;div style=&quot;box-sizing: border-box ; width: 100% ; background: #e4e4e4 ; padding: 2px&quot;&gt;t_cpm_fleet_condition&lt;/div&gt;&lt;table style=&quot;width: 100% ; font-size: 1em&quot; cellpadding=&quot;2&quot; cellspacing=&quot;0&quot;&gt;&lt;tbody&gt;&lt;tr&gt;&lt;td&gt;fleet&lt;br&gt;json（UI） blob&lt;br&gt;考虑是否使用此表&lt;/td&gt;&lt;td&gt;&lt;br&gt;&lt;/td&gt;&lt;/tr&gt;&lt;/tbody&gt;&lt;/table&gt;" style="verticalAlign=top;align=left;overflow=fill;html=1;" parent="1" vertex="1">
          <mxGeometry x="250" y="1910" width="180" height="80" as="geometry" />
        </mxCell>
        <mxCell id="AUBJ6H6WE6R_VnKt_WEj-69" style="edgeStyle=orthogonalEdgeStyle;rounded=0;orthogonalLoop=1;jettySize=auto;html=1;entryX=-0.01;entryY=0.607;entryDx=0;entryDy=0;entryPerimeter=0;" parent="1" source="AUBJ6H6WE6R_VnKt_WEj-68" target="AUBJ6H6WE6R_VnKt_WEj-39" edge="1">
          <mxGeometry relative="1" as="geometry">
            <Array as="points">
              <mxPoint x="-530" y="1550" />
              <mxPoint x="-322" y="1550" />
            </Array>
          </mxGeometry>
        </mxCell>
        <mxCell id="AUBJ6H6WE6R_VnKt_WEj-68" value="&lt;div style=&quot;box-sizing: border-box ; width: 100% ; background: #e4e4e4 ; padding: 2px&quot;&gt;t_cpm_premises_technical&lt;/div&gt;&lt;table style=&quot;width: 100% ; font-size: 1em&quot; cellpadding=&quot;2&quot; cellspacing=&quot;0&quot;&gt;&lt;tbody&gt;&lt;tr&gt;&lt;td&gt;cpm&lt;br&gt;technical&lt;/td&gt;&lt;td&gt;&lt;br&gt;&lt;/td&gt;&lt;/tr&gt;&lt;/tbody&gt;&lt;/table&gt;" style="verticalAlign=top;align=left;overflow=fill;html=1;" parent="1" vertex="1">
          <mxGeometry x="-620" y="1620" width="180" height="90" as="geometry" />
        </mxCell>
        <mxCell id="jAAxaHhlG3nCpJsoV5B3-1" value="" style="line;strokeWidth=1;fillColor=none;align=left;verticalAlign=middle;spacingTop=-1;spacingLeft=3;spacingRight=3;rotatable=0;labelPosition=right;points=[];portConstraint=eastwest;" vertex="1" parent="1">
          <mxGeometry x="-800" y="2150" width="1290" height="8" as="geometry" />
        </mxCell>
        <mxCell id="jAAxaHhlG3nCpJsoV5B3-2" value="&lt;b&gt;&lt;font style=&quot;font-size: 18px&quot;&gt;计算模块&lt;/font&gt;&lt;/b&gt;&lt;br&gt;&lt;br&gt;&lt;table border=&quot;0&quot; cellpadding=&quot;0&quot; cellspacing=&quot;0&quot; width=&quot;192&quot; style=&quot;border-collapse: collapse ; width: 144pt&quot;&gt; &lt;colgroup&gt;&lt;col width=&quot;192&quot; style=&quot;width: 144pt&quot;&gt;&lt;/colgroup&gt; &lt;tbody&gt;&lt;tr style=&quot;height: 15.6pt&quot;&gt;  &lt;td height=&quot;21&quot; class=&quot;xl63&quot; width=&quot;192&quot; style=&quot;height: 15.6pt ; width: 144pt&quot;&gt;配置技术参数&lt;/td&gt; &lt;/tr&gt; &lt;tr style=&quot;height: 15.6pt&quot;&gt;  &lt;td height=&quot;21&quot; class=&quot;xl63&quot; style=&quot;height: 15.6pt ; border-top: none&quot;&gt;配置技术措施&lt;/td&gt; &lt;/tr&gt; &lt;tr style=&quot;height: 15.6pt&quot;&gt;  &lt;td height=&quot;21&quot; class=&quot;xl63&quot; style=&quot;height: 15.6pt ; border-top: none&quot;&gt;配置产量数据&lt;/td&gt; &lt;/tr&gt; &lt;tr style=&quot;height: 15.6pt&quot;&gt;  &lt;td height=&quot;21&quot; class=&quot;xl63&quot; style=&quot;height: 15.6pt ; border-top: none&quot;&gt;产量 连接 数据数据&lt;/td&gt; &lt;/tr&gt;&lt;/tbody&gt;&lt;/table&gt;" style="html=1;" vertex="1" parent="1">
          <mxGeometry x="-690" y="2178" width="270" height="122" as="geometry" />
        </mxCell>
        <mxCell id="jAAxaHhlG3nCpJsoV5B3-36" style="edgeStyle=orthogonalEdgeStyle;rounded=0;orthogonalLoop=1;jettySize=auto;html=1;fontSize=12;exitX=0;exitY=0.5;exitDx=0;exitDy=0;" edge="1" parent="1" source="jAAxaHhlG3nCpJsoV5B3-3" target="AUBJ6H6WE6R_VnKt_WEj-39">
          <mxGeometry relative="1" as="geometry">
            <Array as="points">
              <mxPoint x="-750" y="2635" />
              <mxPoint x="-750" y="1440" />
              <mxPoint x="-230" y="1440" />
            </Array>
          </mxGeometry>
        </mxCell>
        <mxCell id="jAAxaHhlG3nCpJsoV5B3-3" value="&lt;div style=&quot;box-sizing: border-box ; width: 100% ; background: #e4e4e4 ; padding: 2px&quot;&gt;t_calc_process&lt;/div&gt;name&lt;br&gt;status&lt;br&gt;cpm？" style="verticalAlign=top;align=left;overflow=fill;html=1;" vertex="1" parent="1">
          <mxGeometry x="-720" y="2590" width="180" height="90" as="geometry" />
        </mxCell>
        <mxCell id="jAAxaHhlG3nCpJsoV5B3-29" style="edgeStyle=orthogonalEdgeStyle;rounded=0;orthogonalLoop=1;jettySize=auto;html=1;entryX=0.5;entryY=0;entryDx=0;entryDy=0;" edge="1" parent="1" source="jAAxaHhlG3nCpJsoV5B3-4" target="jAAxaHhlG3nCpJsoV5B3-17">
          <mxGeometry relative="1" as="geometry" />
        </mxCell>
        <mxCell id="jAAxaHhlG3nCpJsoV5B3-4" value="&lt;div style=&quot;box-sizing: border-box ; width: 100% ; background: #e4e4e4 ; padding: 2px&quot;&gt;t_calc_measure&lt;/div&gt;egc&lt;br&gt;measure name&lt;br&gt;" style="verticalAlign=top;align=left;overflow=fill;html=1;" vertex="1" parent="1">
          <mxGeometry x="-80" y="2178" width="180" height="90" as="geometry" />
        </mxCell>
        <mxCell id="jAAxaHhlG3nCpJsoV5B3-20" style="edgeStyle=orthogonalEdgeStyle;rounded=0;orthogonalLoop=1;jettySize=auto;html=1;" edge="1" parent="1" source="jAAxaHhlG3nCpJsoV5B3-13" target="jAAxaHhlG3nCpJsoV5B3-3">
          <mxGeometry relative="1" as="geometry">
            <mxPoint x="-440" y="2340" as="targetPoint" />
          </mxGeometry>
        </mxCell>
        <mxCell id="jAAxaHhlG3nCpJsoV5B3-13" value="&lt;div style=&quot;box-sizing: border-box ; width: 100% ; background: #e4e4e4 ; padding: 2px&quot;&gt;t_calc_data_car&lt;/div&gt;&lt;table style=&quot;width: 100% ; font-size: 1em&quot; cellpadding=&quot;2&quot; cellspacing=&quot;0&quot;&gt;&lt;tbody&gt;&lt;tr&gt;&lt;td&gt;kpb&lt;br&gt;name&lt;br&gt;process&lt;br&gt;comments&lt;/td&gt;&lt;td&gt;&lt;br&gt;&lt;/td&gt;&lt;/tr&gt;&lt;/tbody&gt;&lt;/table&gt;" style="verticalAlign=top;align=left;overflow=fill;html=1;" vertex="1" parent="1">
          <mxGeometry x="-413" y="2590" width="180" height="90" as="geometry" />
        </mxCell>
        <mxCell id="jAAxaHhlG3nCpJsoV5B3-25" style="edgeStyle=orthogonalEdgeStyle;rounded=0;orthogonalLoop=1;jettySize=auto;html=1;entryX=0.597;entryY=0.024;entryDx=0;entryDy=0;entryPerimeter=0;" edge="1" parent="1" source="jAAxaHhlG3nCpJsoV5B3-17" target="jAAxaHhlG3nCpJsoV5B3-13">
          <mxGeometry relative="1" as="geometry" />
        </mxCell>
        <mxCell id="jAAxaHhlG3nCpJsoV5B3-17" value="&lt;div style=&quot;box-sizing: border-box ; width: 100% ; background: #e4e4e4 ; padding: 2px&quot;&gt;t_calc_data_egc&lt;/div&gt;&lt;table style=&quot;width: 100% ; font-size: 1em&quot; cellpadding=&quot;2&quot; cellspacing=&quot;0&quot;&gt;&lt;tbody&gt;&lt;tr&gt;&lt;td&gt;car&lt;br&gt;titile&lt;br&gt;status&lt;br&gt;cartype&lt;/td&gt;&lt;td&gt;&lt;br&gt;&lt;/td&gt;&lt;/tr&gt;&lt;/tbody&gt;&lt;/table&gt;" style="verticalAlign=top;align=left;overflow=fill;html=1;" vertex="1" parent="1">
          <mxGeometry x="-400" y="2380" width="180" height="90" as="geometry" />
        </mxCell>
        <mxCell id="jAAxaHhlG3nCpJsoV5B3-24" style="edgeStyle=orthogonalEdgeStyle;rounded=0;orthogonalLoop=1;jettySize=auto;html=1;entryX=1;entryY=0.5;entryDx=0;entryDy=0;" edge="1" parent="1" source="jAAxaHhlG3nCpJsoV5B3-18" target="jAAxaHhlG3nCpJsoV5B3-17">
          <mxGeometry relative="1" as="geometry" />
        </mxCell>
        <mxCell id="jAAxaHhlG3nCpJsoV5B3-18" value="&lt;div style=&quot;box-sizing: border-box ; width: 100% ; background: #e4e4e4 ; padding: 2px&quot;&gt;t_calc_data_identify&lt;/div&gt;&lt;table style=&quot;width: 100% ; font-size: 1em&quot; cellpadding=&quot;2&quot; cellspacing=&quot;0&quot;&gt;&lt;tbody&gt;&lt;tr&gt;&lt;td&gt;egc&lt;br&gt;name&lt;br&gt;value&lt;/td&gt;&lt;td&gt;&lt;br&gt;&lt;/td&gt;&lt;/tr&gt;&lt;/tbody&gt;&lt;/table&gt;" style="verticalAlign=top;align=left;overflow=fill;html=1;" vertex="1" parent="1">
          <mxGeometry x="-80" y="2400" width="180" height="90" as="geometry" />
        </mxCell>
        <mxCell id="jAAxaHhlG3nCpJsoV5B3-23" style="edgeStyle=orthogonalEdgeStyle;rounded=0;orthogonalLoop=1;jettySize=auto;html=1;entryX=1;entryY=0.5;entryDx=0;entryDy=0;" edge="1" parent="1" source="jAAxaHhlG3nCpJsoV5B3-19" target="jAAxaHhlG3nCpJsoV5B3-17">
          <mxGeometry relative="1" as="geometry" />
        </mxCell>
        <mxCell id="jAAxaHhlG3nCpJsoV5B3-19" value="&lt;div style=&quot;box-sizing: border-box ; width: 100% ; background: #e4e4e4 ; padding: 2px&quot;&gt;t_calc_data_technical&lt;/div&gt;&lt;table style=&quot;width: 100% ; font-size: 1em&quot; cellpadding=&quot;2&quot; cellspacing=&quot;0&quot;&gt;&lt;tbody&gt;&lt;tr&gt;&lt;td&gt;egc&lt;br&gt;name&lt;br&gt;value&lt;/td&gt;&lt;td&gt;&lt;br&gt;&lt;/td&gt;&lt;/tr&gt;&lt;/tbody&gt;&lt;/table&gt;" style="verticalAlign=top;align=left;overflow=fill;html=1;" vertex="1" parent="1">
          <mxGeometry x="-80" y="2510" width="180" height="90" as="geometry" />
        </mxCell>
        <mxCell id="jAAxaHhlG3nCpJsoV5B3-22" style="edgeStyle=orthogonalEdgeStyle;rounded=0;orthogonalLoop=1;jettySize=auto;html=1;entryX=1;entryY=0.5;entryDx=0;entryDy=0;" edge="1" parent="1" source="jAAxaHhlG3nCpJsoV5B3-21" target="jAAxaHhlG3nCpJsoV5B3-17">
          <mxGeometry relative="1" as="geometry" />
        </mxCell>
        <mxCell id="jAAxaHhlG3nCpJsoV5B3-21" value="&lt;div style=&quot;box-sizing: border-box ; width: 100% ; background: #e4e4e4 ; padding: 2px&quot;&gt;t_calc_data_sales&lt;/div&gt;&lt;table style=&quot;width: 100% ; font-size: 1em&quot; cellpadding=&quot;2&quot; cellspacing=&quot;0&quot;&gt;&lt;tbody&gt;&lt;tr&gt;&lt;td&gt;egc&lt;br&gt;year&lt;br&gt;value&lt;br&gt;version&lt;br&gt;&lt;br&gt;&lt;/td&gt;&lt;td&gt;&lt;br&gt;&lt;/td&gt;&lt;/tr&gt;&lt;/tbody&gt;&lt;/table&gt;" style="verticalAlign=top;align=left;overflow=fill;html=1;" vertex="1" parent="1">
          <mxGeometry x="-80" y="2620" width="180" height="110" as="geometry" />
        </mxCell>
        <mxCell id="jAAxaHhlG3nCpJsoV5B3-26" value="&lt;div style=&quot;box-sizing: border-box ; width: 100% ; background: #e4e4e4 ; padding: 2px&quot;&gt;tt_tech_data_measure&lt;/div&gt;&lt;table style=&quot;width: 100% ; font-size: 1em&quot; cellpadding=&quot;2&quot; cellspacing=&quot;0&quot;&gt;&lt;tbody&gt;&lt;tr&gt;&lt;td&gt;name&lt;br&gt;status&lt;/td&gt;&lt;td&gt;&lt;br&gt;&lt;/td&gt;&lt;/tr&gt;&lt;/tbody&gt;&lt;/table&gt;" style="verticalAlign=top;align=left;overflow=fill;html=1;" vertex="1" parent="1">
          <mxGeometry x="-610" y="280" width="180" height="90" as="geometry" />
        </mxCell>
        <mxCell id="jAAxaHhlG3nCpJsoV5B3-28" style="edgeStyle=orthogonalEdgeStyle;rounded=0;orthogonalLoop=1;jettySize=auto;html=1;entryX=0.5;entryY=1;entryDx=0;entryDy=0;" edge="1" parent="1" source="jAAxaHhlG3nCpJsoV5B3-27" target="jAAxaHhlG3nCpJsoV5B3-26">
          <mxGeometry relative="1" as="geometry" />
        </mxCell>
        <mxCell id="jAAxaHhlG3nCpJsoV5B3-27" value="&lt;div style=&quot;box-sizing: border-box ; width: 100% ; background: #e4e4e4 ; padding: 2px&quot;&gt;tt_tech_data_measure_val&lt;/div&gt;&lt;table style=&quot;width: 100% ; font-size: 1em&quot; cellpadding=&quot;2&quot; cellspacing=&quot;0&quot;&gt;&lt;tbody&gt;&lt;tr&gt;&lt;td&gt;measure&lt;br&gt;technical&lt;br&gt;value&lt;/td&gt;&lt;td&gt;&lt;br&gt;&lt;/td&gt;&lt;/tr&gt;&lt;/tbody&gt;&lt;/table&gt;" style="verticalAlign=top;align=left;overflow=fill;html=1;" vertex="1" parent="1">
          <mxGeometry x="-610" y="430" width="180" height="90" as="geometry" />
        </mxCell>
        <mxCell id="jAAxaHhlG3nCpJsoV5B3-31" style="edgeStyle=orthogonalEdgeStyle;rounded=0;orthogonalLoop=1;jettySize=auto;html=1;entryX=1;entryY=0.5;entryDx=0;entryDy=0;" edge="1" parent="1" source="jAAxaHhlG3nCpJsoV5B3-30" target="jAAxaHhlG3nCpJsoV5B3-4">
          <mxGeometry relative="1" as="geometry" />
        </mxCell>
        <mxCell id="jAAxaHhlG3nCpJsoV5B3-30" value="&lt;div style=&quot;box-sizing: border-box ; width: 100% ; background: #e4e4e4 ; padding: 2px&quot;&gt;t_calc_measure_val&lt;/div&gt;measure&lt;br&gt;technical&lt;br&gt;value" style="verticalAlign=top;align=left;overflow=fill;html=1;" vertex="1" parent="1">
          <mxGeometry x="170" y="2178" width="180" height="90" as="geometry" />
        </mxCell>
        <mxCell id="jAAxaHhlG3nCpJsoV5B3-33" style="edgeStyle=orthogonalEdgeStyle;rounded=0;orthogonalLoop=1;jettySize=auto;html=1;" edge="1" parent="1" source="jAAxaHhlG3nCpJsoV5B3-32" target="jAAxaHhlG3nCpJsoV5B3-17">
          <mxGeometry relative="1" as="geometry" />
        </mxCell>
        <mxCell id="jAAxaHhlG3nCpJsoV5B3-34" style="edgeStyle=orthogonalEdgeStyle;rounded=0;orthogonalLoop=1;jettySize=auto;html=1;" edge="1" parent="1" source="jAAxaHhlG3nCpJsoV5B3-32" target="jAAxaHhlG3nCpJsoV5B3-4">
          <mxGeometry relative="1" as="geometry" />
        </mxCell>
        <mxCell id="jAAxaHhlG3nCpJsoV5B3-32" value="&lt;div style=&quot;box-sizing: border-box ; width: 100% ; background: #e4e4e4 ; padding: 2px&quot;&gt;t_calc_roadmap&lt;/div&gt;&lt;table style=&quot;width: 100% ; font-size: 1em&quot; cellpadding=&quot;2&quot; cellspacing=&quot;0&quot;&gt;&lt;tbody&gt;&lt;tr&gt;&lt;td&gt;egc&lt;br&gt;year&lt;br&gt;ratio&lt;span&gt;	&lt;/span&gt;&lt;br&gt;measure&lt;/td&gt;&lt;td&gt;&lt;br&gt;&lt;/td&gt;&lt;/tr&gt;&lt;/tbody&gt;&lt;/table&gt;" style="verticalAlign=top;align=left;overflow=fill;html=1;" vertex="1" parent="1">
          <mxGeometry x="-80" y="2290" width="180" height="90" as="geometry" />
        </mxCell>
        <mxCell id="jAAxaHhlG3nCpJsoV5B3-35" value="&lt;font style=&quot;font-size: 12px&quot;&gt;配置法规&lt;br&gt;关联还是复制一份&lt;br&gt;&lt;/font&gt;" style="html=1;fontSize=18;" vertex="1" parent="1">
          <mxGeometry x="-700" y="2470" width="110" height="100" as="geometry" />
        </mxCell>
      </root>
    </mxGraphModel>
  </diagram>
</mxfile>
